%TF.GenerationSoftware,KiCad,Pcbnew,4.0.6*%
%TF.CreationDate,2018-03-29T20:35:18+02:00*%
%TF.ProjectId,808,3830382E6B696361645F706362000000,rev?*%
%TF.FileFunction,Copper,L1,Top,Signal*%
%FSLAX46Y46*%
G04 Gerber Fmt 4.6, Leading zero omitted, Abs format (unit mm)*
G04 Created by KiCad (PCBNEW 4.0.6) date 2018 March 29, Thursday 20:35:18*
%MOMM*%
%LPD*%
G01*
G04 APERTURE LIST*
%ADD10C,0.100000*%
%ADD11C,1.600000*%
%ADD12R,1.200000X1.200000*%
%ADD13C,1.200000*%
%ADD14R,1.600000X1.600000*%
%ADD15R,1.800000X1.800000*%
%ADD16O,1.800000X1.800000*%
%ADD17R,1.350000X1.350000*%
%ADD18O,1.350000X1.350000*%
%ADD19C,1.000000*%
%ADD20R,1.000000X1.000000*%
%ADD21C,1.400000*%
%ADD22O,1.400000X1.400000*%
%ADD23C,2.000000*%
%ADD24O,1.600000X1.600000*%
%ADD25R,3.000000X3.000000*%
%ADD26C,3.000000*%
%ADD27C,0.600000*%
%ADD28C,0.250000*%
G04 APERTURE END LIST*
D10*
D11*
X67310000Y-121920000D03*
X64810000Y-121920000D03*
X87630000Y-96520000D03*
X87630000Y-99020000D03*
X93980000Y-114935000D03*
X88980000Y-114935000D03*
X95250000Y-88900000D03*
X90250000Y-88900000D03*
X108585000Y-92075000D03*
X103585000Y-92075000D03*
X117475000Y-92075000D03*
X112475000Y-92075000D03*
X109855000Y-133350000D03*
X109855000Y-130850000D03*
X102235000Y-116205000D03*
X102235000Y-113705000D03*
X117475000Y-131445000D03*
X114975000Y-131445000D03*
D12*
X127000000Y-127000000D03*
D13*
X125000000Y-127000000D03*
D12*
X137795000Y-125095000D03*
D13*
X135795000Y-125095000D03*
D14*
X128270000Y-93345000D03*
D11*
X128270000Y-91345000D03*
D12*
X149225000Y-114935000D03*
D13*
X151225000Y-114935000D03*
D11*
X138430000Y-114935000D03*
X133430000Y-114935000D03*
D15*
X60960000Y-121920000D03*
D16*
X53340000Y-121920000D03*
D15*
X93980000Y-126365000D03*
D16*
X93980000Y-133985000D03*
D15*
X83820000Y-83820000D03*
D16*
X91440000Y-83820000D03*
D17*
X48895000Y-121920000D03*
D18*
X48895000Y-123920000D03*
D17*
X146050000Y-98425000D03*
D18*
X144050000Y-98425000D03*
D19*
X81915000Y-97790000D03*
X80645000Y-99060000D03*
D20*
X80645000Y-96520000D03*
D19*
X77470000Y-128905000D03*
X76200000Y-130175000D03*
D20*
X76200000Y-127635000D03*
D19*
X80010000Y-116840000D03*
X81280000Y-115570000D03*
D20*
X81280000Y-118110000D03*
D19*
X84455000Y-92075000D03*
X83185000Y-90805000D03*
D20*
X85725000Y-90805000D03*
D19*
X109855000Y-105410000D03*
X108585000Y-106680000D03*
D20*
X108585000Y-104140000D03*
D19*
X143510000Y-120650000D03*
X142240000Y-119380000D03*
D20*
X144780000Y-119380000D03*
D21*
X60960000Y-127635000D03*
D22*
X60960000Y-132715000D03*
D21*
X71120000Y-97155000D03*
D22*
X66040000Y-97155000D03*
D21*
X76200000Y-97790000D03*
D22*
X76200000Y-102870000D03*
D21*
X71120000Y-121920000D03*
D22*
X71120000Y-127000000D03*
D21*
X71120000Y-131445000D03*
D22*
X71120000Y-136525000D03*
D21*
X71120000Y-92710000D03*
D22*
X66040000Y-92710000D03*
D21*
X76200000Y-110490000D03*
D22*
X76200000Y-115570000D03*
D21*
X76200000Y-118745000D03*
D22*
X76200000Y-123825000D03*
D21*
X70485000Y-86360000D03*
D22*
X75565000Y-86360000D03*
D21*
X93980000Y-121285000D03*
D22*
X88900000Y-121285000D03*
D21*
X102870000Y-105410000D03*
D22*
X97790000Y-105410000D03*
D21*
X88900000Y-128270000D03*
D22*
X88900000Y-133350000D03*
D21*
X101600000Y-83820000D03*
D22*
X106680000Y-83820000D03*
D21*
X111760000Y-112395000D03*
D22*
X106680000Y-112395000D03*
D21*
X110490000Y-95250000D03*
D22*
X110490000Y-100330000D03*
D21*
X115570000Y-102870000D03*
D22*
X115570000Y-107950000D03*
D21*
X113665000Y-112395000D03*
D22*
X118745000Y-112395000D03*
D21*
X117475000Y-121920000D03*
D22*
X122555000Y-121920000D03*
D21*
X123190000Y-83820000D03*
D22*
X128270000Y-83820000D03*
D21*
X119380000Y-100965000D03*
D22*
X119380000Y-95885000D03*
D21*
X102870000Y-133985000D03*
D22*
X97790000Y-133985000D03*
D21*
X124460000Y-95885000D03*
D22*
X124460000Y-100965000D03*
D21*
X146050000Y-125095000D03*
D22*
X140970000Y-125095000D03*
D21*
X140970000Y-130175000D03*
D22*
X146050000Y-130175000D03*
D21*
X142240000Y-114935000D03*
D22*
X142240000Y-109855000D03*
D21*
X146685000Y-103505000D03*
D22*
X146685000Y-108585000D03*
D21*
X141605000Y-107315000D03*
D22*
X141605000Y-102235000D03*
D17*
X118110000Y-117475000D03*
D18*
X120110000Y-117475000D03*
X122110000Y-117475000D03*
D17*
X131445000Y-123190000D03*
D18*
X131445000Y-125190000D03*
X131445000Y-127190000D03*
D17*
X132715000Y-135890000D03*
D18*
X134715000Y-135890000D03*
X136715000Y-135890000D03*
D23*
X63555000Y-114300000D03*
X59055000Y-114300000D03*
X63555000Y-107800000D03*
X59055000Y-107800000D03*
D14*
X109855000Y-119380000D03*
D24*
X102235000Y-127000000D03*
X107315000Y-119380000D03*
X104775000Y-127000000D03*
X104775000Y-119380000D03*
X107315000Y-127000000D03*
X102235000Y-119380000D03*
X109855000Y-127000000D03*
D25*
X52705000Y-97790000D03*
D26*
X52705000Y-92710000D03*
X52705000Y-87630000D03*
D27*
X97155000Y-112395000D03*
D28*
X67310000Y-121920000D02*
X71120000Y-121920000D01*
X60960000Y-121920000D02*
X64810000Y-121920000D01*
X60960000Y-121920000D02*
X60960000Y-127635000D01*
X84455000Y-92075000D02*
X86995000Y-94615000D01*
X86995000Y-95885000D02*
X87630000Y-96520000D01*
X86995000Y-94615000D02*
X86995000Y-95885000D01*
X80645000Y-96520000D02*
X87630000Y-96520000D01*
X71120000Y-92710000D02*
X76835000Y-92710000D01*
X76835000Y-92710000D02*
X80645000Y-96520000D01*
X114975000Y-131445000D02*
X114975000Y-134580000D01*
X131445000Y-130810000D02*
X131445000Y-127190000D01*
X127635000Y-134620000D02*
X131445000Y-130810000D01*
X115015000Y-134620000D02*
X127635000Y-134620000D01*
X114975000Y-134580000D02*
X115015000Y-134620000D01*
X133430000Y-114935000D02*
X133430000Y-110410000D01*
X133430000Y-110410000D02*
X141605000Y-102235000D01*
X131445000Y-127190000D02*
X131635000Y-127190000D01*
X131635000Y-127190000D02*
X134620000Y-130175000D01*
X134620000Y-130175000D02*
X140970000Y-130175000D01*
X114975000Y-131445000D02*
X111760000Y-131445000D01*
X111760000Y-131445000D02*
X109855000Y-133350000D01*
X114975000Y-131445000D02*
X114975000Y-108545000D01*
X114975000Y-108545000D02*
X115570000Y-107950000D01*
X97790000Y-133985000D02*
X97790000Y-136525000D01*
X97790000Y-136525000D02*
X98425000Y-137160000D01*
X98425000Y-137160000D02*
X108585000Y-137160000D01*
X108585000Y-137160000D02*
X109855000Y-135890000D01*
X109855000Y-135890000D02*
X109855000Y-133350000D01*
X93980000Y-133985000D02*
X97790000Y-133985000D01*
X88900000Y-133350000D02*
X90170000Y-133350000D01*
X90805000Y-133985000D02*
X93980000Y-133985000D01*
X90170000Y-133350000D02*
X90805000Y-133985000D01*
X144050000Y-98425000D02*
X143510000Y-98425000D01*
X143510000Y-98425000D02*
X141605000Y-100330000D01*
X141605000Y-100330000D02*
X141605000Y-102235000D01*
X108585000Y-106680000D02*
X106045000Y-106680000D01*
X102235000Y-110490000D02*
X102235000Y-113705000D01*
X106045000Y-106680000D02*
X102235000Y-110490000D01*
X108585000Y-106680000D02*
X108585000Y-107950000D01*
X108585000Y-107950000D02*
X115570000Y-107950000D01*
X80645000Y-99060000D02*
X87590000Y-99060000D01*
X87590000Y-99060000D02*
X87630000Y-99020000D01*
X76200000Y-102870000D02*
X78740000Y-102870000D01*
X78740000Y-102870000D02*
X80645000Y-100965000D01*
X80645000Y-100965000D02*
X80645000Y-99060000D01*
X76200000Y-133350000D02*
X88900000Y-133350000D01*
X71120000Y-136525000D02*
X73025000Y-136525000D01*
X76200000Y-133350000D02*
X76200000Y-130175000D01*
X73025000Y-136525000D02*
X76200000Y-133350000D01*
X71120000Y-136525000D02*
X64770000Y-136525000D01*
X64770000Y-136525000D02*
X60960000Y-132715000D01*
X48895000Y-123920000D02*
X48895000Y-128270000D01*
X53340000Y-132715000D02*
X60960000Y-132715000D01*
X48895000Y-128270000D02*
X53340000Y-132715000D01*
X93980000Y-126365000D02*
X90805000Y-126365000D01*
X90805000Y-126365000D02*
X88900000Y-128270000D01*
X93980000Y-121285000D02*
X93980000Y-126365000D01*
X93980000Y-114935000D02*
X93980000Y-121285000D01*
X104775000Y-119380000D02*
X104775000Y-121285000D01*
X104775000Y-121285000D02*
X93980000Y-121285000D01*
X88900000Y-121285000D02*
X88900000Y-115015000D01*
X88900000Y-115015000D02*
X88980000Y-114935000D01*
X81280000Y-118110000D02*
X83820000Y-118110000D01*
X86995000Y-121285000D02*
X88900000Y-121285000D01*
X83820000Y-118110000D02*
X86995000Y-121285000D01*
X81280000Y-118110000D02*
X83185000Y-118110000D01*
X66040000Y-102235000D02*
X66040000Y-97155000D01*
X69850000Y-106045000D02*
X66040000Y-102235000D01*
X78740000Y-106045000D02*
X69850000Y-106045000D01*
X83185000Y-110490000D02*
X78740000Y-106045000D01*
X83185000Y-118110000D02*
X83185000Y-110490000D01*
X95250000Y-88900000D02*
X95250000Y-83820000D01*
X91440000Y-83820000D02*
X95250000Y-83820000D01*
X95250000Y-83820000D02*
X101600000Y-83820000D01*
X85725000Y-90805000D02*
X86360000Y-90805000D01*
X88265000Y-88900000D02*
X90250000Y-88900000D01*
X86360000Y-90805000D02*
X88265000Y-88900000D01*
X90250000Y-88900000D02*
X90250000Y-92155000D01*
X90250000Y-92155000D02*
X97790000Y-99695000D01*
X97790000Y-99695000D02*
X97790000Y-105410000D01*
X75565000Y-86360000D02*
X81280000Y-86360000D01*
X81280000Y-86360000D02*
X85725000Y-90805000D01*
X110490000Y-92075000D02*
X110490000Y-95250000D01*
X108585000Y-92075000D02*
X110490000Y-92075000D01*
X110490000Y-92075000D02*
X112475000Y-92075000D01*
X106680000Y-83820000D02*
X106680000Y-86995000D01*
X108585000Y-88900000D02*
X108585000Y-92075000D01*
X106680000Y-86995000D02*
X108585000Y-88900000D01*
X106680000Y-83820000D02*
X123190000Y-83820000D01*
X111760000Y-112395000D02*
X113665000Y-112395000D01*
X111760000Y-112395000D02*
X111760000Y-117475000D01*
X111760000Y-117475000D02*
X109855000Y-119380000D01*
X117475000Y-92075000D02*
X117475000Y-93980000D01*
X117475000Y-93980000D02*
X119380000Y-95885000D01*
X52705000Y-97790000D02*
X63555000Y-97790000D01*
X63555000Y-97790000D02*
X63500000Y-97790000D01*
X63500000Y-97790000D02*
X63555000Y-97790000D01*
X76200000Y-110490000D02*
X66040000Y-110490000D01*
X76200000Y-110490000D02*
X81280000Y-115570000D01*
X109855000Y-127000000D02*
X109855000Y-130850000D01*
X66040000Y-92710000D02*
X66040000Y-87630000D01*
X67310000Y-86360000D02*
X70485000Y-86360000D01*
X66040000Y-87630000D02*
X67310000Y-86360000D01*
X63555000Y-107800000D02*
X63555000Y-97790000D01*
X63555000Y-97790000D02*
X63555000Y-95195000D01*
X63555000Y-95195000D02*
X66040000Y-92710000D01*
X63555000Y-114300000D02*
X64770000Y-114300000D01*
X66040000Y-113030000D02*
X66040000Y-110490000D01*
X64770000Y-114300000D02*
X66040000Y-113030000D01*
X66040000Y-110285000D02*
X63555000Y-107800000D01*
X66040000Y-110490000D02*
X66040000Y-110285000D01*
X100965000Y-116205000D02*
X102235000Y-116205000D01*
X97155000Y-112395000D02*
X100965000Y-116205000D01*
X102235000Y-116205000D02*
X102235000Y-119380000D01*
X122110000Y-117475000D02*
X120110000Y-117475000D01*
X117475000Y-131445000D02*
X120555000Y-131445000D01*
X120555000Y-131445000D02*
X125000000Y-127000000D01*
X122555000Y-121920000D02*
X122555000Y-124555000D01*
X122555000Y-124555000D02*
X125000000Y-127000000D01*
X122110000Y-117475000D02*
X122110000Y-119570000D01*
X122555000Y-120015000D02*
X122555000Y-121920000D01*
X122110000Y-119570000D02*
X122555000Y-120015000D01*
X131445000Y-123190000D02*
X129540000Y-123190000D01*
X127000000Y-125730000D02*
X127000000Y-127000000D01*
X129540000Y-123190000D02*
X127000000Y-125730000D01*
X137795000Y-125095000D02*
X140970000Y-125095000D01*
X135795000Y-125095000D02*
X131540000Y-125095000D01*
X131540000Y-125095000D02*
X131445000Y-125190000D01*
X128270000Y-93345000D02*
X152400000Y-93345000D01*
X149860000Y-135890000D02*
X136715000Y-135890000D01*
X153670000Y-132080000D02*
X149860000Y-135890000D01*
X153670000Y-94615000D02*
X153670000Y-132080000D01*
X152400000Y-93345000D02*
X153670000Y-94615000D01*
X128270000Y-91345000D02*
X126905000Y-91345000D01*
X123190000Y-95885000D02*
X124460000Y-95885000D01*
X122555000Y-95250000D02*
X123190000Y-95885000D01*
X122555000Y-89535000D02*
X122555000Y-95250000D01*
X125095000Y-89535000D02*
X122555000Y-89535000D01*
X126905000Y-91345000D02*
X125095000Y-89535000D01*
X128270000Y-83820000D02*
X128270000Y-91345000D01*
X138430000Y-114935000D02*
X142240000Y-114935000D01*
X142240000Y-114935000D02*
X142240000Y-119380000D01*
X149225000Y-114935000D02*
X142240000Y-114935000D01*
X141605000Y-107315000D02*
X142875000Y-107315000D01*
X144145000Y-108585000D02*
X146685000Y-108585000D01*
X142875000Y-107315000D02*
X144145000Y-108585000D01*
X146685000Y-108585000D02*
X146685000Y-110490000D01*
X151225000Y-112490000D02*
X151225000Y-114935000D01*
X150495000Y-111760000D02*
X151225000Y-112490000D01*
X147955000Y-111760000D02*
X150495000Y-111760000D01*
X146685000Y-110490000D02*
X147955000Y-111760000D01*
X55880000Y-114300000D02*
X55880000Y-107950000D01*
X56030000Y-107800000D02*
X59055000Y-107800000D01*
X55880000Y-107950000D02*
X56030000Y-107800000D01*
X53340000Y-121920000D02*
X53340000Y-116840000D01*
X55880000Y-114300000D02*
X59055000Y-114300000D01*
X53340000Y-116840000D02*
X55880000Y-114300000D01*
X48895000Y-121920000D02*
X53340000Y-121920000D01*
X146050000Y-98425000D02*
X146050000Y-100965000D01*
X146685000Y-101600000D02*
X146685000Y-103505000D01*
X146050000Y-100965000D02*
X146685000Y-101600000D01*
X76200000Y-97790000D02*
X81915000Y-97790000D01*
X76200000Y-97790000D02*
X71755000Y-97790000D01*
X71755000Y-97790000D02*
X71120000Y-97155000D01*
X71120000Y-129540000D02*
X74295000Y-129540000D01*
X74930000Y-128905000D02*
X77470000Y-128905000D01*
X74295000Y-129540000D02*
X74930000Y-128905000D01*
X71120000Y-127000000D02*
X71120000Y-129540000D01*
X71120000Y-129540000D02*
X71120000Y-131445000D01*
X76200000Y-123825000D02*
X76200000Y-127635000D01*
X76200000Y-116840000D02*
X80010000Y-116840000D01*
X76200000Y-115570000D02*
X76200000Y-116840000D01*
X76200000Y-116840000D02*
X76200000Y-118745000D01*
X102870000Y-105410000D02*
X109855000Y-105410000D01*
X110490000Y-100330000D02*
X113030000Y-100330000D01*
X113030000Y-100330000D02*
X115570000Y-102870000D01*
X110490000Y-100330000D02*
X109855000Y-100330000D01*
X109855000Y-100330000D02*
X108585000Y-101600000D01*
X108585000Y-101600000D02*
X108585000Y-104140000D01*
X146050000Y-125095000D02*
X146050000Y-130175000D01*
X143510000Y-120650000D02*
X145415000Y-122555000D01*
X146050000Y-123190000D02*
X146050000Y-125095000D01*
X145415000Y-122555000D02*
X146050000Y-123190000D01*
X118110000Y-117475000D02*
X118110000Y-113030000D01*
X118110000Y-113030000D02*
X118745000Y-112395000D01*
X118110000Y-117475000D02*
X118110000Y-119380000D01*
X117475000Y-120015000D02*
X117475000Y-121920000D01*
X118110000Y-119380000D02*
X117475000Y-120015000D01*
X118110000Y-117475000D02*
X118110000Y-116840000D01*
X119380000Y-100965000D02*
X124460000Y-100965000D01*
X132715000Y-135890000D02*
X134715000Y-135890000D01*
X102235000Y-127000000D02*
X102235000Y-130175000D01*
X102870000Y-130810000D02*
X102870000Y-133985000D01*
X102235000Y-130175000D02*
X102870000Y-130810000D01*
M02*
