M48
;DRILL file {KiCad 4.0.6} date 2018 March 29, Thursday 20:35:23
;FORMAT={3:3/ absolute / metric / suppress leading zeros}
FMAT,2
METRIC,TZ
T1C0.400
T2C0.600
T3C0.700
T4C0.800
T5C0.900
T6C1.100
T7C1.520
%
G90
G05
M71
T1
X97155Y-112395
T2
X76200Y-127635
X76200Y-130175
X77470Y-128905
X80010Y-116840
X80645Y-96520
X80645Y-99060
X81280Y-115570
X81280Y-118110
X81915Y-97790
X83185Y-90805
X84455Y-92075
X85725Y-90805
X108585Y-104140
X108585Y-106680
X109855Y-105410
X125000Y-127000
X127000Y-127000
X135795Y-125095
X137795Y-125095
X142240Y-119380
X143510Y-120650
X144780Y-119380
X149225Y-114935
X151225Y-114935
T3
X60960Y-127635
X60960Y-132715
X66040Y-92710
X66040Y-97155
X70485Y-86360
X71120Y-92710
X71120Y-97155
X71120Y-121920
X71120Y-127000
X71120Y-131445
X71120Y-136525
X75565Y-86360
X76200Y-97790
X76200Y-102870
X76200Y-110490
X76200Y-115570
X76200Y-118745
X76200Y-123825
X88900Y-121285
X88900Y-128270
X88900Y-133350
X93980Y-121285
X97790Y-105410
X97790Y-133985
X101600Y-83820
X102870Y-105410
X102870Y-133985
X106680Y-83820
X106680Y-112395
X110490Y-95250
X110490Y-100330
X111760Y-112395
X113665Y-112395
X115570Y-102870
X115570Y-107950
X117475Y-121920
X118745Y-112395
X119380Y-95885
X119380Y-100965
X122555Y-121920
X123190Y-83820
X124460Y-95885
X124460Y-100965
X128270Y-83820
X140970Y-125095
X140970Y-130175
X141605Y-102235
X141605Y-107315
X142240Y-109855
X142240Y-114935
X146050Y-125095
X146050Y-130175
X146685Y-103505
X146685Y-108585
T4
X48895Y-121920
X48895Y-123920
X64810Y-121920
X67310Y-121920
X87630Y-96520
X87630Y-99020
X88980Y-114935
X90250Y-88900
X93980Y-114935
X95250Y-88900
X102235Y-113705
X102235Y-116205
X102235Y-119380
X102235Y-127000
X103585Y-92075
X104775Y-119380
X104775Y-127000
X107315Y-119380
X107315Y-127000
X108585Y-92075
X109855Y-119380
X109855Y-127000
X109855Y-130850
X109855Y-133350
X112475Y-92075
X114975Y-131445
X117475Y-92075
X117475Y-131445
X118110Y-117475
X120110Y-117475
X122110Y-117475
X128270Y-91345
X128270Y-93345
X131445Y-123190
X131445Y-125190
X131445Y-127190
X132715Y-135890
X133430Y-114935
X134715Y-135890
X136715Y-135890
X138430Y-114935
X144050Y-98425
X146050Y-98425
T5
X53340Y-121920
X60960Y-121920
X83820Y-83820
X91440Y-83820
X93980Y-126365
X93980Y-133985
T6
X59055Y-107800
X59055Y-114300
X63555Y-107800
X63555Y-114300
T7
X52705Y-87630
X52705Y-92710
X52705Y-97790
T0
M30
